<?xml version="1.0" encoding="UTF-8" standalone="no"?>
<!-- Created with Inkscape (http://www.inkscape.org/) -->

<svg
   width="164.1006mm"
   height="39.885925mm"
   viewBox="0 0 164.1006 39.885925"
   version="1.1"
   id="svg5"
   xml:space="preserve"
   xmlns:inkscape="http://www.inkscape.org/namespaces/inkscape"
   xmlns:sodipodi="http://sodipodi.sourceforge.net/DTD/sodipodi-0.dtd"
   xmlns="http://www.w3.org/2000/svg"
   xmlns:svg="http://www.w3.org/2000/svg"><sodipodi:namedview
     id="namedview7"
     pagecolor="#505050"
     bordercolor="#ffffff"
     borderopacity="1"
     inkscape:showpageshadow="0"
     inkscape:pageopacity="0"
     inkscape:pagecheckerboard="1"
     inkscape:deskcolor="#505050"
     inkscape:document-units="mm"
     showgrid="false" /><defs
     id="defs2"><clipPath
       id="b3fd5e3b93"><path
         d="M 94.910156,239.64844 H 245 v 150.75 H 94.910156 Z m 0,0"
         clip-rule="nonzero"
         id="path9" /></clipPath><clipPath
       id="88677bdf8c"><path
         d="m 682,303 h 33.13281 v 43 H 682 Z m 0,0"
         clip-rule="nonzero"
         id="path12" /></clipPath><clipPath
       id="1c6093a6b5"><path
         d="M 94.910156,239.64844 H 245 v 150.75 H 94.910156 Z m 0,0"
         clip-rule="nonzero"
         id="path15" /></clipPath><clipPath
       id="2fa3f634e7"><path
         d="m 682,303 h 33.13281 v 43 H 682 Z m 0,0"
         clip-rule="nonzero"
         id="path18" /></clipPath></defs><g
     inkscape:label="Layer 1"
     inkscape:groupmode="layer"
     id="layer1"
     transform="translate(-19.16685,-105.2771)"><g
       id="g107"
       transform="matrix(0.26458333,0,0,0.26458333,-5.9447956,41.870108)"><g
         clip-path="url(#b3fd5e3b93)"
         id="g25"
         inkscape:export-filename="g25.svg"
         inkscape:export-xdpi="96"
         inkscape:export-ydpi="96"><path
           fill="#51ce7b"
           d="m 135.38672,390.16406 c 0,0 0.23047,0 0.46484,0.23438 H 99.589844 c 0,-2.59375 -2.105469,-4.71094 -4.679688,-4.71094 v -26.61719 c 1.871094,0 3.507813,-0.23437 5.382814,-0.70703 6.31641,11.30469 17.54687,25.4375 35.09375,31.80078 z m 59.42187,-40.75 c -5.14453,0 -9.35547,-4.24219 -9.35547,-9.42187 0,-0.23828 0,-0.70703 0,-0.94532 -8.1914,-1.17578 -15.20703,0.70704 -21.52343,2.59375 -1.875,0.46875 -3.51172,0.94141 -5.38282,1.41407 -1.40234,6.35937 -7.01953,11.07031 -13.80468,11.07031 -7.71875,0 -14.03516,-6.36328 -14.03516,-14.13281 0,-1.88672 0.23438,-3.53516 0.93359,-5.1836 -9.58984,-10.83593 -20.12109,-33.21093 -33.687495,-76.55468 -0.9375,0.23828 -1.871094,0.23828 -3.042969,0.23828 v 26.61718 c 2.574219,0 4.679688,2.11719 4.679688,4.71094 0,2.58985 -2.105469,4.71094 -4.679688,4.71094 v 26.61719 c 10.292974,0 18.718754,8.47656 18.718754,18.84375 0,6.82812 -3.51172,12.71875 -8.89063,16.01562 6.08203,10.59766 16.375,23.55469 32.05078,29.44141 1.63672,-2.82422 4.67969,-4.70703 8.1875,-4.70703 5.14844,0 9.35938,4.23828 9.35938,9.42187 h 26.4375 c 0,-7.77344 6.3164,-14.13672 14.03515,-14.13672 0.23438,0 0.23438,0 0.46875,0 1.40625,-10.59765 1.40625,-19.3125 0,-26.85156 -0.23437,0.23828 -0.46875,0.23828 -0.46875,0.23828 z m 7.25391,-3.53515 c -0.70313,0.9414 -1.63672,1.64843 -2.57422,2.35546 1.40625,8.00782 1.64063,17.66797 0,28.97266 5.38281,2.12109 8.89063,7.30078 8.89063,13.19141 h 17.54687 c 0,-5.65235 2.33984,-10.60157 6.08594,-13.89844 -11.46485,-15.54688 -21.29297,-24.96875 -29.94922,-30.62109 z m -57.32031,-19.78516 c 7.01953,0 13.10156,5.41797 13.80468,12.24609 1.16797,-0.23437 2.57422,-0.70312 3.74219,-1.17578 7.25391,-2.12109 15.20703,-4.47656 24.56641,-2.82812 0.46875,-0.70313 1.17187,-1.41016 1.87109,-1.88282 -6.78515,-11.77734 -17.78125,-18.37109 -27.37109,-24.26171 -5.38281,-3.0625 -10.0625,-6.125 -13.80469,-9.65625 -0.9375,0.46875 -2.10547,0.46875 -3.04297,0.46875 -5.14453,0 -9.35547,-4.23829 -9.35547,-9.42188 0,-3.29687 1.63672,-6.12109 4.21094,-7.77344 -2.33984,-10.125 -1.63672,-20.49218 -0.46875,-28.5 -4.91406,-2.12109 -8.42187,-7.0664 -8.42187,-12.95312 0,-0.47266 0,-0.70703 0,-0.94531 h -16.84375 c 0,7.77343 -4.67969,14.37109 -10.9961,17.19531 13.10157,41.92969 22.92578,63.59765 31.81641,73.96484 2.57422,-2.59375 6.08203,-4.47656 10.29297,-4.47656 z m 95.22265,-86.44531 h -35.79687 c 0,0.23437 0,0.70703 0,0.9414 0,5.1836 -4.21094,9.42188 -9.35938,9.42188 -0.23047,0 -0.46484,0 -0.93359,0 -3.04297,10.83594 -4.21094,19.55078 -3.27734,26.38281 1.40625,-0.47266 2.80859,-0.70703 4.21093,-0.70703 7.72266,0 14.03907,6.35937 14.03907,14.13281 0,1.64844 -0.23438,3.29688 -0.70313,4.71094 5.85156,0.70703 12.40234,0 18.25,-1.41406 -0.46875,-0.94141 -0.46875,-2.1211 -0.46875,-3.29688 0,-10.36719 8.42188,-18.84375 18.71875,-18.84375 v -26.61719 c -2.57422,0 -4.67969,-2.12109 -4.67969,-4.71093 z m -12.39843,58.17968 c -4.67969,0.94141 -9.82813,1.88282 -14.74219,1.88282 -2.57422,0 -4.91406,-0.23438 -7.25,-0.70703 -2.57422,3.0625 -6.55078,4.94921 -10.76563,4.94921 -7.71875,0 -14.03515,-6.35937 -14.03515,-14.13281 0,-4.47656 2.10547,-8.71484 5.3789,-11.30859 -1.16797,-8.00781 -0.23047,-17.90235 3.27735,-30.14844 -2.57422,-1.64844 -4.21094,-4.47656 -4.21094,-7.77344 0,-0.47265 0,-0.70703 0,-0.9414 h -26.4375 c 0,0.23437 0,0.70703 0,0.9414 0,7.77344 -6.31641,14.13282 -14.03906,14.13282 -0.46875,0 -0.69922,0 -1.16797,0 -1.17188,7.30078 -1.63672,16.72265 0.23437,25.67578 0.23438,0 0.46875,0 0.69922,0 5.14844,0 9.35938,4.23828 9.35938,9.42187 0,2.35547 -0.9336,4.47266 -2.33985,6.125 3.27735,2.82422 7.72266,5.41406 12.40235,8.24219 10.29297,6.125 22.22265,13.19141 29.71093,26.61719 0.46875,0 0.70313,0 1.16797,0 5.14844,0 9.35938,4.23828 9.35938,9.42187 0,0.46875 0,0.94141 0,1.17578 9.125,5.89063 19.65234,16.01953 31.82031,32.50782 2.57422,-1.41407 5.61328,-2.1211 8.65625,-2.1211 V 344.9375 c -2.57422,0 -4.67969,-2.12109 -4.67969,-4.71094 0,-2.58984 2.10547,-4.71094 4.67969,-4.71094 v -26.85156 c -7.48828,0 -14.03906,-4.47656 -17.07812,-10.83594 z m 0,0"
           fill-opacity="1"
           fill-rule="nonzero"
           id="path23" /></g><path
         fill="#ffffff"
         d="m 332.37891,315.25781 28.30859,29.91406 v 0.70704 h -13.80469 l -24.5625,-26.38282 v 26.38282 h -11.23047 v -59.35547 h 11.23047 v 25.20312 l 22.45703,-25.20312 h 13.80469 v 0.23437 z m 0,0"
         fill-opacity="1"
         fill-rule="nonzero"
         id="path27"
         style="fill:#000000;fill-opacity:1" /><path
         fill="#ffffff"
         d="m 394.14453,323.97266 c 0,-6.35938 -3.50781,-11.30469 -10.05859,-11.30469 -6.32032,0 -10.53125,5.41797 -10.53125,11.77734 v 21.4336 h -10.29297 v -41.92579 h 9.125 l 0.70312,5.65235 c 4.21094,-4.23828 8.42188,-6.35938 13.56641,-6.35938 9.82812,0 17.54687,7.30078 17.54687,20.49219 v 21.90625 h -10.29296 v -21.67187 z m 0,0"
         fill-opacity="1"
         fill-rule="nonzero"
         id="path29"
         style="fill:#000000;fill-opacity:1" /><path
         fill="#ffffff"
         d="m 433.91406,337.63672 c 3.7461,0 8.66016,-1.41406 11.23047,-4.00391 l 6.55078,6.59375 c -4.44531,4.47656 -11.46094,6.83203 -17.78125,6.83203 -14.26953,0 -22.92578,-8.95312 -22.92578,-22.3789 0,-12.71875 8.65625,-21.90625 21.99219,-21.90625 12.86719,0 21.05469,7.30078 21.05469,21.90625 0,1.17968 0,2.58984 -0.23438,4.0039 h -32.51953 c 0.9375,5.1836 5.38281,8.95313 12.63281,8.95313 z m -0.69922,-25.67578 c -5.61718,0 -10.0625,2.82812 -11.69922,8.24218 h 22.46094 c -0.46875,-5.41406 -4.67969,-8.24218 -10.76172,-8.24218 z m 0,0"
         fill-opacity="1"
         fill-rule="nonzero"
         id="path31"
         style="fill:#000000;fill-opacity:1" /><path
         fill="#ffffff"
         d="m 474.15625,304.1875 h 11.46484 v 8.94922 h -11.46484 v 18.13672 c 0,4.00781 2.10547,5.89062 5.37891,5.89062 1.64062,0 3.51562,-0.47265 4.91406,-1.17969 l 2.80859,8.71875 c -3.27344,1.17579 -5.84765,1.88282 -9.35937,1.88282 -8.42188,0 -14.03516,-5.1836 -14.03516,-15.3125 v -18.13672 h -7.71875 v -8.94922 h 7.71875 v -10.83594 l 10.29297,-1.17578 z m 0,0"
         fill-opacity="1"
         fill-rule="nonzero"
         id="path33"
         style="fill:#000000;fill-opacity:1" /><path
         fill="#ffffff"
         d="m 525.86328,328.68359 h -2.10547 l -18.71875,-25.91015 v 43.10547 h -11.23047 v -59.35547 h 12.86719 l 18.48438,25.4375 18.48437,-25.4375 h 12.63281 v 59.35547 h -11.23047 v -42.8711 z m 0,0"
         fill-opacity="1"
         fill-rule="nonzero"
         id="path35"
         style="fill:#000000;fill-opacity:1" /><path
         fill="#ffffff"
         d="m 570.54687,286.28516 c 3.04297,0 6.08594,1.88671 6.08594,6.125 0,4.0039 -3.04297,6.125 -6.08594,6.125 -3.03906,0 -6.07812,-2.1211 -6.07812,-6.125 0,-4.23829 3.03906,-6.125 6.07812,-6.125 z m -5.14453,59.59375 h 10.29297 v -41.92579 h -10.29297 z m 0,0"
         fill-opacity="1"
         fill-rule="nonzero"
         id="path37"
         style="fill:#000000;fill-opacity:1" /><path
         fill="#ffffff"
         d="m 615,323.97266 c 0,-6.35938 -3.50781,-11.30469 -10.05859,-11.30469 -6.31641,0 -10.53125,5.41797 -10.53125,11.77734 v 21.4336 h -10.29297 v -41.92579 h 9.125 l 0.70312,5.65235 c 4.20703,-4.23828 8.42188,-6.35938 13.56641,-6.35938 9.82812,0 17.54687,7.30078 17.54687,20.49219 v 21.90625 h -10.29297 v -21.67187 z m 0,0"
         fill-opacity="1"
         fill-rule="nonzero"
         id="path39"
         style="fill:#000000;fill-opacity:1" /><path
         fill="#ffffff"
         d="m 654.77344,337.63672 c 3.74218,0 8.65625,-1.41406 11.23047,-4.00391 l 6.55078,6.59375 c -4.44922,4.47656 -11.46485,6.83203 -17.78125,6.83203 -14.27344,0 -22.92969,-8.95312 -22.92969,-22.3789 0,-12.71875 8.65625,-21.90625 21.99609,-21.90625 12.86328,0 21.05469,7.30078 21.05469,21.90625 0,1.17968 0,2.58984 -0.23828,4.0039 h -32.51953 c 0.9375,5.1836 5.61719,8.95313 12.63672,8.95313 z m -0.46875,-25.67578 c -5.61719,0 -10.0586,2.82812 -11.69532,8.24218 h 22.45704 c -0.70313,-5.41406 -4.91407,-8.24218 -10.76172,-8.24218 z m 0,0"
         fill-opacity="1"
         fill-rule="nonzero"
         id="path41"
         style="fill:#000000;fill-opacity:1" /><g
         clip-path="url(#88677bdf8c)"
         id="g45"
         style="fill:#000000;fill-opacity:1"><path
           fill="#ffffff"
           d="m 692.67187,308.89844 c 3.27735,-5.1836 7.48829,-5.89063 11.70313,-5.89063 4.20703,0 8.42187,1.65235 10.75781,4.00781 l -4.67969,8.94922 c -2.10546,-1.88281 -3.97656,-2.82812 -7.48437,-2.82812 -5.38281,0 -10.29688,2.82812 -10.29688,10.60156 v 22.14063 H 682.37891 V 304.1875 h 9.59375 z m 0,0"
           fill-opacity="1"
           fill-rule="nonzero"
           id="path43"
           style="fill:#000000;fill-opacity:1" /></g><g
         clip-path="url(#1c6093a6b5)"
         id="g49"><path
           fill="#51ce7b"
           d="m 135.38672,390.16406 c 0,0 0.23047,0 0.46484,0.23438 H 99.589844 c 0,-2.59375 -2.105469,-4.71094 -4.679688,-4.71094 v -26.61719 c 1.871094,0 3.507813,-0.23437 5.382814,-0.70703 6.31641,11.30469 17.54687,25.4375 35.09375,31.80078 z m 59.42187,-40.75 c -5.14453,0 -9.35547,-4.24219 -9.35547,-9.42187 0,-0.23828 0,-0.70703 0,-0.94532 -8.1914,-1.17578 -15.20703,0.70704 -21.52343,2.59375 -1.875,0.46875 -3.51172,0.94141 -5.38282,1.41407 -1.40234,6.35937 -7.01953,11.07031 -13.80468,11.07031 -7.71875,0 -14.03516,-6.36328 -14.03516,-14.13281 0,-1.88672 0.23438,-3.53516 0.93359,-5.1836 -9.58984,-10.83593 -20.12109,-33.21093 -33.687495,-76.55468 -0.9375,0.23828 -1.871094,0.23828 -3.042969,0.23828 v 26.61718 c 2.574219,0 4.679688,2.11719 4.679688,4.71094 0,2.58985 -2.105469,4.71094 -4.679688,4.71094 v 26.61719 c 10.292974,0 18.718754,8.47656 18.718754,18.84375 0,6.82812 -3.51172,12.71875 -8.89063,16.01562 6.08203,10.59766 16.375,23.55469 32.05078,29.44141 1.63672,-2.82422 4.67969,-4.70703 8.1875,-4.70703 5.14844,0 9.35938,4.23828 9.35938,9.42187 h 26.4375 c 0,-7.77344 6.3164,-14.13672 14.03515,-14.13672 0.23438,0 0.23438,0 0.46875,0 1.40625,-10.59765 1.40625,-19.3125 0,-26.85156 -0.23437,0.23828 -0.46875,0.23828 -0.46875,0.23828 z m 7.25391,-3.53515 c -0.70313,0.9414 -1.63672,1.64843 -2.57422,2.35546 1.40625,8.00782 1.64063,17.66797 0,28.97266 5.38281,2.12109 8.89063,7.30078 8.89063,13.19141 h 17.54687 c 0,-5.65235 2.33984,-10.60157 6.08594,-13.89844 -11.46485,-15.54688 -21.29297,-24.96875 -29.94922,-30.62109 z m -57.32031,-19.78516 c 7.01953,0 13.10156,5.41797 13.80468,12.24609 1.16797,-0.23437 2.57422,-0.70312 3.74219,-1.17578 7.25391,-2.12109 15.20703,-4.47656 24.56641,-2.82812 0.46875,-0.70313 1.17187,-1.41016 1.87109,-1.88282 -6.78515,-11.77734 -17.78125,-18.37109 -27.37109,-24.26171 -5.38281,-3.0625 -10.0625,-6.125 -13.80469,-9.65625 -0.9375,0.46875 -2.10547,0.46875 -3.04297,0.46875 -5.14453,0 -9.35547,-4.23829 -9.35547,-9.42188 0,-3.29687 1.63672,-6.12109 4.21094,-7.77344 -2.33984,-10.125 -1.63672,-20.49218 -0.46875,-28.5 -4.91406,-2.12109 -8.42187,-7.0664 -8.42187,-12.95312 0,-0.47266 0,-0.70703 0,-0.94531 h -16.84375 c 0,7.77343 -4.67969,14.37109 -10.9961,17.19531 13.10157,41.92969 22.92578,63.59765 31.81641,73.96484 2.57422,-2.59375 6.08203,-4.47656 10.29297,-4.47656 z m 95.22265,-86.44531 h -35.79687 c 0,0.23437 0,0.70703 0,0.9414 0,5.1836 -4.21094,9.42188 -9.35938,9.42188 -0.23047,0 -0.46484,0 -0.93359,0 -3.04297,10.83594 -4.21094,19.55078 -3.27734,26.38281 1.40625,-0.47266 2.80859,-0.70703 4.21093,-0.70703 7.72266,0 14.03907,6.35937 14.03907,14.13281 0,1.64844 -0.23438,3.29688 -0.70313,4.71094 5.85156,0.70703 12.40234,0 18.25,-1.41406 -0.46875,-0.94141 -0.46875,-2.1211 -0.46875,-3.29688 0,-10.36719 8.42188,-18.84375 18.71875,-18.84375 v -26.61719 c -2.57422,0 -4.67969,-2.12109 -4.67969,-4.71093 z m -12.39843,58.17968 c -4.67969,0.94141 -9.82813,1.88282 -14.74219,1.88282 -2.57422,0 -4.91406,-0.23438 -7.25,-0.70703 -2.57422,3.0625 -6.55078,4.94921 -10.76563,4.94921 -7.71875,0 -14.03515,-6.35937 -14.03515,-14.13281 0,-4.47656 2.10547,-8.71484 5.3789,-11.30859 -1.16797,-8.00781 -0.23047,-17.90235 3.27735,-30.14844 -2.57422,-1.64844 -4.21094,-4.47656 -4.21094,-7.77344 0,-0.47265 0,-0.70703 0,-0.9414 h -26.4375 c 0,0.23437 0,0.70703 0,0.9414 0,7.77344 -6.31641,14.13282 -14.03906,14.13282 -0.46875,0 -0.69922,0 -1.16797,0 -1.17188,7.30078 -1.63672,16.72265 0.23437,25.67578 0.23438,0 0.46875,0 0.69922,0 5.14844,0 9.35938,4.23828 9.35938,9.42187 0,2.35547 -0.9336,4.47266 -2.33985,6.125 3.27735,2.82422 7.72266,5.41406 12.40235,8.24219 10.29297,6.125 22.22265,13.19141 29.71093,26.61719 0.46875,0 0.70313,0 1.16797,0 5.14844,0 9.35938,4.23828 9.35938,9.42187 0,0.46875 0,0.94141 0,1.17578 9.125,5.89063 19.65234,16.01953 31.82031,32.50782 2.57422,-1.41407 5.61328,-2.1211 8.65625,-2.1211 V 344.9375 c -2.57422,0 -4.67969,-2.12109 -4.67969,-4.71094 0,-2.58984 2.10547,-4.71094 4.67969,-4.71094 v -26.85156 c -7.48828,0 -14.03906,-4.47656 -17.07812,-10.83594 z m 0,0"
           fill-opacity="1"
           fill-rule="nonzero"
           id="path47" /></g><path
         fill="#ffffff"
         d="m 332.37891,315.25781 28.30859,29.91406 v 0.70704 h -13.80469 l -24.5625,-26.38282 v 26.38282 h -11.23047 v -59.35547 h 11.23047 v 25.20312 l 22.45703,-25.20312 h 13.80469 v 0.23437 z m 0,0"
         fill-opacity="1"
         fill-rule="nonzero"
         id="path51"
         style="fill:#000000;fill-opacity:1" /><path
         fill="#ffffff"
         d="m 394.14453,323.97266 c 0,-6.35938 -3.50781,-11.30469 -10.05859,-11.30469 -6.32032,0 -10.53125,5.41797 -10.53125,11.77734 v 21.4336 h -10.29297 v -41.92579 h 9.125 l 0.70312,5.65235 c 4.21094,-4.23828 8.42188,-6.35938 13.56641,-6.35938 9.82812,0 17.54687,7.30078 17.54687,20.49219 v 21.90625 h -10.29296 v -21.67187 z m 0,0"
         fill-opacity="1"
         fill-rule="nonzero"
         id="path53"
         style="fill:#000000;fill-opacity:1" /><path
         fill="#ffffff"
         d="m 433.91406,337.63672 c 3.7461,0 8.66016,-1.41406 11.23047,-4.00391 l 6.55078,6.59375 c -4.44531,4.47656 -11.46094,6.83203 -17.78125,6.83203 -14.26953,0 -22.92578,-8.95312 -22.92578,-22.3789 0,-12.71875 8.65625,-21.90625 21.99219,-21.90625 12.86719,0 21.05469,7.30078 21.05469,21.90625 0,1.17968 0,2.58984 -0.23438,4.0039 h -32.51953 c 0.9375,5.1836 5.38281,8.95313 12.63281,8.95313 z m -0.69922,-25.67578 c -5.61718,0 -10.0625,2.82812 -11.69922,8.24218 h 22.46094 c -0.46875,-5.41406 -4.67969,-8.24218 -10.76172,-8.24218 z m 0,0"
         fill-opacity="1"
         fill-rule="nonzero"
         id="path55"
         style="fill:#000000;fill-opacity:1" /><path
         fill="#ffffff"
         d="m 474.15625,304.1875 h 11.46484 v 8.94922 h -11.46484 v 18.13672 c 0,4.00781 2.10547,5.89062 5.37891,5.89062 1.64062,0 3.51562,-0.47265 4.91406,-1.17969 l 2.80859,8.71875 c -3.27344,1.17579 -5.84765,1.88282 -9.35937,1.88282 -8.42188,0 -14.03516,-5.1836 -14.03516,-15.3125 v -18.13672 h -7.71875 v -8.94922 h 7.71875 v -10.83594 l 10.29297,-1.17578 z m 0,0"
         fill-opacity="1"
         fill-rule="nonzero"
         id="path57"
         style="fill:#000000;fill-opacity:1" /><path
         fill="#ffffff"
         d="m 525.86328,328.68359 h -2.10547 l -18.71875,-25.91015 v 43.10547 h -11.23047 v -59.35547 h 12.86719 l 18.48438,25.4375 18.48437,-25.4375 h 12.63281 v 59.35547 h -11.23047 v -42.8711 z m 0,0"
         fill-opacity="1"
         fill-rule="nonzero"
         id="path59"
         style="fill:#000000;fill-opacity:1" /><path
         fill="#ffffff"
         d="m 570.54687,286.28516 c 3.04297,0 6.08594,1.88671 6.08594,6.125 0,4.0039 -3.04297,6.125 -6.08594,6.125 -3.03906,0 -6.07812,-2.1211 -6.07812,-6.125 0,-4.23829 3.03906,-6.125 6.07812,-6.125 z m -5.14453,59.59375 h 10.29297 v -41.92579 h -10.29297 z m 0,0"
         fill-opacity="1"
         fill-rule="nonzero"
         id="path61"
         style="fill:#000000;fill-opacity:1" /><path
         fill="#ffffff"
         d="m 615,323.97266 c 0,-6.35938 -3.50781,-11.30469 -10.05859,-11.30469 -6.31641,0 -10.53125,5.41797 -10.53125,11.77734 v 21.4336 h -10.29297 v -41.92579 h 9.125 l 0.70312,5.65235 c 4.20703,-4.23828 8.42188,-6.35938 13.56641,-6.35938 9.82812,0 17.54687,7.30078 17.54687,20.49219 v 21.90625 h -10.29297 v -21.67187 z m 0,0"
         fill-opacity="1"
         fill-rule="nonzero"
         id="path63"
         style="fill:#000000;fill-opacity:1" /><path
         fill="#ffffff"
         d="m 654.77344,337.63672 c 3.74218,0 8.65625,-1.41406 11.23047,-4.00391 l 6.55078,6.59375 c -4.44922,4.47656 -11.46485,6.83203 -17.78125,6.83203 -14.27344,0 -22.92969,-8.95312 -22.92969,-22.3789 0,-12.71875 8.65625,-21.90625 21.99609,-21.90625 12.86328,0 21.05469,7.30078 21.05469,21.90625 0,1.17968 0,2.58984 -0.23828,4.0039 h -32.51953 c 0.9375,5.1836 5.61719,8.95313 12.63672,8.95313 z m -0.46875,-25.67578 c -5.61719,0 -10.0586,2.82812 -11.69532,8.24218 h 22.45704 c -0.70313,-5.41406 -4.91407,-8.24218 -10.76172,-8.24218 z m 0,0"
         fill-opacity="1"
         fill-rule="nonzero"
         id="path65"
         style="fill:#000000;fill-opacity:1" /><g
         clip-path="url(#2fa3f634e7)"
         id="g69"
         style="fill:#000000;fill-opacity:1"><path
           fill="#ffffff"
           d="m 692.67187,308.89844 c 3.27735,-5.1836 7.48829,-5.89063 11.70313,-5.89063 4.20703,0 8.42187,1.65235 10.75781,4.00781 l -4.67969,8.94922 c -2.10546,-1.88281 -3.97656,-2.82812 -7.48437,-2.82812 -5.38281,0 -10.29688,2.82812 -10.29688,10.60156 v 22.14063 H 682.37891 V 304.1875 h 9.59375 z m 0,0"
           fill-opacity="1"
           fill-rule="nonzero"
           id="path67"
           style="fill:#000000;fill-opacity:1" /></g></g></g></svg>
