<svg xmlns="http://www.w3.org/2000/svg" xmlns:xlink="http://www.w3.org/1999/xlink" zoomAndPan="magnify" preserveAspectRatio="xMidYMid meet" version="1.0" viewBox="94.91 239.41 620.22 150.99"><defs><clipPath id="b3fd5e3b93"><path d="M 94.910156 239.648438 L 245 239.648438 L 245 390.398438 L 94.910156 390.398438 Z M 94.910156 239.648438 " clip-rule="nonzero"/></clipPath><clipPath id="88677bdf8c"><path d="M 682 303 L 715.132812 303 L 715.132812 346 L 682 346 Z M 682 303 " clip-rule="nonzero"/></clipPath><clipPath id="1c6093a6b5"><path d="M 94.910156 239.648438 L 245 239.648438 L 245 390.398438 L 94.910156 390.398438 Z M 94.910156 239.648438 " clip-rule="nonzero"/></clipPath><clipPath id="2fa3f634e7"><path d="M 682 303 L 715.132812 303 L 715.132812 346 L 682 346 Z M 682 303 " clip-rule="nonzero"/></clipPath></defs><g clip-path="url(#b3fd5e3b93)"><path fill="#51ce7b" d="M 135.386719 390.164062 C 135.386719 390.164062 135.617188 390.164062 135.851562 390.398438 L 99.589844 390.398438 C 99.589844 387.804688 97.484375 385.6875 94.910156 385.6875 L 94.910156 359.070312 C 96.78125 359.070312 98.417969 358.835938 100.292969 358.363281 C 106.609375 369.667969 117.839844 383.800781 135.386719 390.164062 Z M 194.808594 349.414062 C 189.664062 349.414062 185.453125 345.171875 185.453125 339.992188 C 185.453125 339.753906 185.453125 339.285156 185.453125 339.046875 C 177.261719 337.871094 170.246094 339.753906 163.929688 341.640625 C 162.054688 342.109375 160.417969 342.582031 158.546875 343.054688 C 157.144531 349.414062 151.527344 354.125 144.742188 354.125 C 137.023438 354.125 130.707031 347.761719 130.707031 339.992188 C 130.707031 338.105469 130.941406 336.457031 131.640625 334.808594 C 122.050781 323.972656 111.519531 301.597656 97.953125 258.253906 C 97.015625 258.492188 96.082031 258.492188 94.910156 258.492188 L 94.910156 285.109375 C 97.484375 285.109375 99.589844 287.226562 99.589844 289.820312 C 99.589844 292.410156 97.484375 294.53125 94.910156 294.53125 L 94.910156 321.148438 C 105.203125 321.148438 113.628906 329.625 113.628906 339.992188 C 113.628906 346.820312 110.117188 352.710938 104.738281 356.007812 C 110.820312 366.605469 121.113281 379.5625 136.789062 385.449219 C 138.425781 382.625 141.46875 380.742188 144.976562 380.742188 C 150.125 380.742188 154.335938 384.980469 154.335938 390.164062 L 180.773438 390.164062 C 180.773438 382.390625 187.089844 376.027344 194.808594 376.027344 C 195.042969 376.027344 195.042969 376.027344 195.277344 376.027344 C 196.683594 365.429688 196.683594 356.714844 195.277344 349.175781 C 195.042969 349.414062 194.808594 349.414062 194.808594 349.414062 Z M 202.0625 345.878906 C 201.359375 346.820312 200.425781 347.527344 199.488281 348.234375 C 200.894531 356.242188 201.128906 365.902344 199.488281 377.207031 C 204.871094 379.328125 208.378906 384.507812 208.378906 390.398438 L 225.925781 390.398438 C 225.925781 384.746094 228.265625 379.796875 232.011719 376.5 C 220.546875 360.953125 210.71875 351.53125 202.0625 345.878906 Z M 144.742188 326.09375 C 151.761719 326.09375 157.84375 331.511719 158.546875 338.339844 C 159.714844 338.105469 161.121094 337.636719 162.289062 337.164062 C 169.542969 335.042969 177.496094 332.6875 186.855469 334.335938 C 187.324219 333.632812 188.027344 332.925781 188.726562 332.453125 C 181.941406 320.675781 170.945312 314.082031 161.355469 308.191406 C 155.972656 305.128906 151.292969 302.066406 147.550781 298.535156 C 146.613281 299.003906 145.445312 299.003906 144.507812 299.003906 C 139.363281 299.003906 135.152344 294.765625 135.152344 289.582031 C 135.152344 286.285156 136.789062 283.460938 139.363281 281.808594 C 137.023438 271.683594 137.726562 261.316406 138.894531 253.308594 C 133.980469 251.1875 130.472656 246.242188 130.472656 240.355469 C 130.472656 239.882812 130.472656 239.648438 130.472656 239.410156 L 113.628906 239.410156 C 113.628906 247.183594 108.949219 253.78125 102.632812 256.605469 C 115.734375 298.535156 125.558594 320.203125 134.449219 330.570312 C 137.023438 327.976562 140.53125 326.09375 144.742188 326.09375 Z M 239.964844 239.648438 L 204.167969 239.648438 C 204.167969 239.882812 204.167969 240.355469 204.167969 240.589844 C 204.167969 245.773438 199.957031 250.011719 194.808594 250.011719 C 194.578125 250.011719 194.34375 250.011719 193.875 250.011719 C 190.832031 260.847656 189.664062 269.5625 190.597656 276.394531 C 192.003906 275.921875 193.40625 275.6875 194.808594 275.6875 C 202.53125 275.6875 208.847656 282.046875 208.847656 289.820312 C 208.847656 291.46875 208.613281 293.117188 208.144531 294.53125 C 213.996094 295.238281 220.546875 294.53125 226.394531 293.117188 C 225.925781 292.175781 225.925781 290.996094 225.925781 289.820312 C 225.925781 279.453125 234.347656 270.976562 244.644531 270.976562 L 244.644531 244.359375 C 242.070312 244.359375 239.964844 242.238281 239.964844 239.648438 Z M 227.566406 297.828125 C 222.886719 298.769531 217.738281 299.710938 212.824219 299.710938 C 210.25 299.710938 207.910156 299.476562 205.574219 299.003906 C 203 302.066406 199.023438 303.953125 194.808594 303.953125 C 187.089844 303.953125 180.773438 297.59375 180.773438 289.820312 C 180.773438 285.34375 182.878906 281.105469 186.152344 278.511719 C 184.984375 270.503906 185.921875 260.609375 189.429688 248.363281 C 186.855469 246.714844 185.21875 243.886719 185.21875 240.589844 C 185.21875 240.117188 185.21875 239.882812 185.21875 239.648438 L 158.78125 239.648438 C 158.78125 239.882812 158.78125 240.355469 158.78125 240.589844 C 158.78125 248.363281 152.464844 254.722656 144.742188 254.722656 C 144.273438 254.722656 144.042969 254.722656 143.574219 254.722656 C 142.402344 262.023438 141.9375 271.445312 143.808594 280.398438 C 144.042969 280.398438 144.277344 280.398438 144.507812 280.398438 C 149.65625 280.398438 153.867188 284.636719 153.867188 289.820312 C 153.867188 292.175781 152.933594 294.292969 151.527344 295.945312 C 154.804688 298.769531 159.25 301.359375 163.929688 304.1875 C 174.222656 310.3125 186.152344 317.378906 193.640625 330.804688 C 194.109375 330.804688 194.34375 330.804688 194.808594 330.804688 C 199.957031 330.804688 204.167969 335.042969 204.167969 340.226562 C 204.167969 340.695312 204.167969 341.167969 204.167969 341.402344 C 213.292969 347.292969 223.820312 357.421875 235.988281 373.910156 C 238.5625 372.496094 241.601562 371.789062 244.644531 371.789062 L 244.644531 344.9375 C 242.070312 344.9375 239.964844 342.816406 239.964844 340.226562 C 239.964844 337.636719 242.070312 335.515625 244.644531 335.515625 L 244.644531 308.664062 C 237.15625 308.664062 230.605469 304.1875 227.566406 297.828125 Z M 227.566406 297.828125 " fill-opacity="1" fill-rule="nonzero"/></g><path fill="#ffffff" d="M 332.378906 315.257812 L 360.6875 345.171875 L 360.6875 345.878906 L 346.882812 345.878906 L 322.320312 319.496094 L 322.320312 345.878906 L 311.089844 345.878906 L 311.089844 286.523438 L 322.320312 286.523438 L 322.320312 311.726562 L 344.777344 286.523438 L 358.582031 286.523438 L 358.582031 286.757812 Z M 332.378906 315.257812 " fill-opacity="1" fill-rule="nonzero"/><path fill="#ffffff" d="M 394.144531 323.972656 C 394.144531 317.613281 390.636719 312.667969 384.085938 312.667969 C 377.765625 312.667969 373.554688 318.085938 373.554688 324.445312 L 373.554688 345.878906 L 363.261719 345.878906 L 363.261719 303.953125 L 372.386719 303.953125 L 373.089844 309.605469 C 377.300781 305.367188 381.511719 303.246094 386.65625 303.246094 C 396.484375 303.246094 404.203125 310.546875 404.203125 323.738281 L 404.203125 345.644531 L 393.910156 345.644531 L 393.910156 323.972656 Z M 394.144531 323.972656 " fill-opacity="1" fill-rule="nonzero"/><path fill="#ffffff" d="M 433.914062 337.636719 C 437.660156 337.636719 442.574219 336.222656 445.144531 333.632812 L 451.695312 340.226562 C 447.25 344.703125 440.234375 347.058594 433.914062 347.058594 C 419.644531 347.058594 410.988281 338.105469 410.988281 324.679688 C 410.988281 311.960938 419.644531 302.773438 432.980469 302.773438 C 445.847656 302.773438 454.035156 310.074219 454.035156 324.679688 C 454.035156 325.859375 454.035156 327.269531 453.800781 328.683594 L 421.28125 328.683594 C 422.21875 333.867188 426.664062 337.636719 433.914062 337.636719 Z M 433.214844 311.960938 C 427.597656 311.960938 423.152344 314.789062 421.515625 320.203125 L 443.976562 320.203125 C 443.507812 314.789062 439.296875 311.960938 433.214844 311.960938 Z M 433.214844 311.960938 " fill-opacity="1" fill-rule="nonzero"/><path fill="#ffffff" d="M 474.15625 304.1875 L 485.621094 304.1875 L 485.621094 313.136719 L 474.15625 313.136719 L 474.15625 331.273438 C 474.15625 335.28125 476.261719 337.164062 479.535156 337.164062 C 481.175781 337.164062 483.050781 336.691406 484.449219 335.984375 L 487.257812 344.703125 C 483.984375 345.878906 481.410156 346.585938 477.898438 346.585938 C 469.476562 346.585938 463.863281 341.402344 463.863281 331.273438 L 463.863281 313.136719 L 456.144531 313.136719 L 456.144531 304.1875 L 463.863281 304.1875 L 463.863281 293.351562 L 474.15625 292.175781 Z M 474.15625 304.1875 " fill-opacity="1" fill-rule="nonzero"/><path fill="#ffffff" d="M 525.863281 328.683594 L 523.757812 328.683594 L 505.039062 302.773438 L 505.039062 345.878906 L 493.808594 345.878906 L 493.808594 286.523438 L 506.675781 286.523438 L 525.160156 311.960938 L 543.644531 286.523438 L 556.277344 286.523438 L 556.277344 345.878906 L 545.046875 345.878906 L 545.046875 303.007812 Z M 525.863281 328.683594 " fill-opacity="1" fill-rule="nonzero"/><path fill="#ffffff" d="M 570.546875 286.285156 C 573.589844 286.285156 576.632812 288.171875 576.632812 292.410156 C 576.632812 296.414062 573.589844 298.535156 570.546875 298.535156 C 567.507812 298.535156 564.46875 296.414062 564.46875 292.410156 C 564.46875 288.171875 567.507812 286.285156 570.546875 286.285156 Z M 565.402344 345.878906 L 575.695312 345.878906 L 575.695312 303.953125 L 565.402344 303.953125 Z M 565.402344 345.878906 " fill-opacity="1" fill-rule="nonzero"/><path fill="#ffffff" d="M 615 323.972656 C 615 317.613281 611.492188 312.667969 604.941406 312.667969 C 598.625 312.667969 594.410156 318.085938 594.410156 324.445312 L 594.410156 345.878906 L 584.117188 345.878906 L 584.117188 303.953125 L 593.242188 303.953125 L 593.945312 309.605469 C 598.152344 305.367188 602.367188 303.246094 607.511719 303.246094 C 617.339844 303.246094 625.058594 310.546875 625.058594 323.738281 L 625.058594 345.644531 L 614.765625 345.644531 L 614.765625 323.972656 Z M 615 323.972656 " fill-opacity="1" fill-rule="nonzero"/><path fill="#ffffff" d="M 654.773438 337.636719 C 658.515625 337.636719 663.429688 336.222656 666.003906 333.632812 L 672.554688 340.226562 C 668.105469 344.703125 661.089844 347.058594 654.773438 347.058594 C 640.5 347.058594 631.84375 338.105469 631.84375 324.679688 C 631.84375 311.960938 640.5 302.773438 653.839844 302.773438 C 666.703125 302.773438 674.894531 310.074219 674.894531 324.679688 C 674.894531 325.859375 674.894531 327.269531 674.65625 328.683594 L 642.136719 328.683594 C 643.074219 333.867188 647.753906 337.636719 654.773438 337.636719 Z M 654.304688 311.960938 C 648.6875 311.960938 644.246094 314.789062 642.609375 320.203125 L 665.066406 320.203125 C 664.363281 314.789062 660.152344 311.960938 654.304688 311.960938 Z M 654.304688 311.960938 " fill-opacity="1" fill-rule="nonzero"/><g clip-path="url(#88677bdf8c)"><path fill="#ffffff" d="M 692.671875 308.898438 C 695.949219 303.714844 700.160156 303.007812 704.375 303.007812 C 708.582031 303.007812 712.796875 304.660156 715.132812 307.015625 L 710.453125 315.964844 C 708.347656 314.082031 706.476562 313.136719 702.96875 313.136719 C 697.585938 313.136719 692.671875 315.964844 692.671875 323.738281 L 692.671875 345.878906 L 682.378906 345.878906 L 682.378906 304.1875 L 691.972656 304.1875 Z M 692.671875 308.898438 " fill-opacity="1" fill-rule="nonzero"/></g><g clip-path="url(#1c6093a6b5)"><path fill="#51ce7b" d="M 135.386719 390.164062 C 135.386719 390.164062 135.617188 390.164062 135.851562 390.398438 L 99.589844 390.398438 C 99.589844 387.804688 97.484375 385.6875 94.910156 385.6875 L 94.910156 359.070312 C 96.78125 359.070312 98.417969 358.835938 100.292969 358.363281 C 106.609375 369.667969 117.839844 383.800781 135.386719 390.164062 Z M 194.808594 349.414062 C 189.664062 349.414062 185.453125 345.171875 185.453125 339.992188 C 185.453125 339.753906 185.453125 339.285156 185.453125 339.046875 C 177.261719 337.871094 170.246094 339.753906 163.929688 341.640625 C 162.054688 342.109375 160.417969 342.582031 158.546875 343.054688 C 157.144531 349.414062 151.527344 354.125 144.742188 354.125 C 137.023438 354.125 130.707031 347.761719 130.707031 339.992188 C 130.707031 338.105469 130.941406 336.457031 131.640625 334.808594 C 122.050781 323.972656 111.519531 301.597656 97.953125 258.253906 C 97.015625 258.492188 96.082031 258.492188 94.910156 258.492188 L 94.910156 285.109375 C 97.484375 285.109375 99.589844 287.226562 99.589844 289.820312 C 99.589844 292.410156 97.484375 294.53125 94.910156 294.53125 L 94.910156 321.148438 C 105.203125 321.148438 113.628906 329.625 113.628906 339.992188 C 113.628906 346.820312 110.117188 352.710938 104.738281 356.007812 C 110.820312 366.605469 121.113281 379.5625 136.789062 385.449219 C 138.425781 382.625 141.46875 380.742188 144.976562 380.742188 C 150.125 380.742188 154.335938 384.980469 154.335938 390.164062 L 180.773438 390.164062 C 180.773438 382.390625 187.089844 376.027344 194.808594 376.027344 C 195.042969 376.027344 195.042969 376.027344 195.277344 376.027344 C 196.683594 365.429688 196.683594 356.714844 195.277344 349.175781 C 195.042969 349.414062 194.808594 349.414062 194.808594 349.414062 Z M 202.0625 345.878906 C 201.359375 346.820312 200.425781 347.527344 199.488281 348.234375 C 200.894531 356.242188 201.128906 365.902344 199.488281 377.207031 C 204.871094 379.328125 208.378906 384.507812 208.378906 390.398438 L 225.925781 390.398438 C 225.925781 384.746094 228.265625 379.796875 232.011719 376.5 C 220.546875 360.953125 210.71875 351.53125 202.0625 345.878906 Z M 144.742188 326.09375 C 151.761719 326.09375 157.84375 331.511719 158.546875 338.339844 C 159.714844 338.105469 161.121094 337.636719 162.289062 337.164062 C 169.542969 335.042969 177.496094 332.6875 186.855469 334.335938 C 187.324219 333.632812 188.027344 332.925781 188.726562 332.453125 C 181.941406 320.675781 170.945312 314.082031 161.355469 308.191406 C 155.972656 305.128906 151.292969 302.066406 147.550781 298.535156 C 146.613281 299.003906 145.445312 299.003906 144.507812 299.003906 C 139.363281 299.003906 135.152344 294.765625 135.152344 289.582031 C 135.152344 286.285156 136.789062 283.460938 139.363281 281.808594 C 137.023438 271.683594 137.726562 261.316406 138.894531 253.308594 C 133.980469 251.1875 130.472656 246.242188 130.472656 240.355469 C 130.472656 239.882812 130.472656 239.648438 130.472656 239.410156 L 113.628906 239.410156 C 113.628906 247.183594 108.949219 253.78125 102.632812 256.605469 C 115.734375 298.535156 125.558594 320.203125 134.449219 330.570312 C 137.023438 327.976562 140.53125 326.09375 144.742188 326.09375 Z M 239.964844 239.648438 L 204.167969 239.648438 C 204.167969 239.882812 204.167969 240.355469 204.167969 240.589844 C 204.167969 245.773438 199.957031 250.011719 194.808594 250.011719 C 194.578125 250.011719 194.34375 250.011719 193.875 250.011719 C 190.832031 260.847656 189.664062 269.5625 190.597656 276.394531 C 192.003906 275.921875 193.40625 275.6875 194.808594 275.6875 C 202.53125 275.6875 208.847656 282.046875 208.847656 289.820312 C 208.847656 291.46875 208.613281 293.117188 208.144531 294.53125 C 213.996094 295.238281 220.546875 294.53125 226.394531 293.117188 C 225.925781 292.175781 225.925781 290.996094 225.925781 289.820312 C 225.925781 279.453125 234.347656 270.976562 244.644531 270.976562 L 244.644531 244.359375 C 242.070312 244.359375 239.964844 242.238281 239.964844 239.648438 Z M 227.566406 297.828125 C 222.886719 298.769531 217.738281 299.710938 212.824219 299.710938 C 210.25 299.710938 207.910156 299.476562 205.574219 299.003906 C 203 302.066406 199.023438 303.953125 194.808594 303.953125 C 187.089844 303.953125 180.773438 297.59375 180.773438 289.820312 C 180.773438 285.34375 182.878906 281.105469 186.152344 278.511719 C 184.984375 270.503906 185.921875 260.609375 189.429688 248.363281 C 186.855469 246.714844 185.21875 243.886719 185.21875 240.589844 C 185.21875 240.117188 185.21875 239.882812 185.21875 239.648438 L 158.78125 239.648438 C 158.78125 239.882812 158.78125 240.355469 158.78125 240.589844 C 158.78125 248.363281 152.464844 254.722656 144.742188 254.722656 C 144.273438 254.722656 144.042969 254.722656 143.574219 254.722656 C 142.402344 262.023438 141.9375 271.445312 143.808594 280.398438 C 144.042969 280.398438 144.277344 280.398438 144.507812 280.398438 C 149.65625 280.398438 153.867188 284.636719 153.867188 289.820312 C 153.867188 292.175781 152.933594 294.292969 151.527344 295.945312 C 154.804688 298.769531 159.25 301.359375 163.929688 304.1875 C 174.222656 310.3125 186.152344 317.378906 193.640625 330.804688 C 194.109375 330.804688 194.34375 330.804688 194.808594 330.804688 C 199.957031 330.804688 204.167969 335.042969 204.167969 340.226562 C 204.167969 340.695312 204.167969 341.167969 204.167969 341.402344 C 213.292969 347.292969 223.820312 357.421875 235.988281 373.910156 C 238.5625 372.496094 241.601562 371.789062 244.644531 371.789062 L 244.644531 344.9375 C 242.070312 344.9375 239.964844 342.816406 239.964844 340.226562 C 239.964844 337.636719 242.070312 335.515625 244.644531 335.515625 L 244.644531 308.664062 C 237.15625 308.664062 230.605469 304.1875 227.566406 297.828125 Z M 227.566406 297.828125 " fill-opacity="1" fill-rule="nonzero"/></g><path fill="#ffffff" d="M 332.378906 315.257812 L 360.6875 345.171875 L 360.6875 345.878906 L 346.882812 345.878906 L 322.320312 319.496094 L 322.320312 345.878906 L 311.089844 345.878906 L 311.089844 286.523438 L 322.320312 286.523438 L 322.320312 311.726562 L 344.777344 286.523438 L 358.582031 286.523438 L 358.582031 286.757812 Z M 332.378906 315.257812 " fill-opacity="1" fill-rule="nonzero"/><path fill="#ffffff" d="M 394.144531 323.972656 C 394.144531 317.613281 390.636719 312.667969 384.085938 312.667969 C 377.765625 312.667969 373.554688 318.085938 373.554688 324.445312 L 373.554688 345.878906 L 363.261719 345.878906 L 363.261719 303.953125 L 372.386719 303.953125 L 373.089844 309.605469 C 377.300781 305.367188 381.511719 303.246094 386.65625 303.246094 C 396.484375 303.246094 404.203125 310.546875 404.203125 323.738281 L 404.203125 345.644531 L 393.910156 345.644531 L 393.910156 323.972656 Z M 394.144531 323.972656 " fill-opacity="1" fill-rule="nonzero"/><path fill="#ffffff" d="M 433.914062 337.636719 C 437.660156 337.636719 442.574219 336.222656 445.144531 333.632812 L 451.695312 340.226562 C 447.25 344.703125 440.234375 347.058594 433.914062 347.058594 C 419.644531 347.058594 410.988281 338.105469 410.988281 324.679688 C 410.988281 311.960938 419.644531 302.773438 432.980469 302.773438 C 445.847656 302.773438 454.035156 310.074219 454.035156 324.679688 C 454.035156 325.859375 454.035156 327.269531 453.800781 328.683594 L 421.28125 328.683594 C 422.21875 333.867188 426.664062 337.636719 433.914062 337.636719 Z M 433.214844 311.960938 C 427.597656 311.960938 423.152344 314.789062 421.515625 320.203125 L 443.976562 320.203125 C 443.507812 314.789062 439.296875 311.960938 433.214844 311.960938 Z M 433.214844 311.960938 " fill-opacity="1" fill-rule="nonzero"/><path fill="#ffffff" d="M 474.15625 304.1875 L 485.621094 304.1875 L 485.621094 313.136719 L 474.15625 313.136719 L 474.15625 331.273438 C 474.15625 335.28125 476.261719 337.164062 479.535156 337.164062 C 481.175781 337.164062 483.050781 336.691406 484.449219 335.984375 L 487.257812 344.703125 C 483.984375 345.878906 481.410156 346.585938 477.898438 346.585938 C 469.476562 346.585938 463.863281 341.402344 463.863281 331.273438 L 463.863281 313.136719 L 456.144531 313.136719 L 456.144531 304.1875 L 463.863281 304.1875 L 463.863281 293.351562 L 474.15625 292.175781 Z M 474.15625 304.1875 " fill-opacity="1" fill-rule="nonzero"/><path fill="#ffffff" d="M 525.863281 328.683594 L 523.757812 328.683594 L 505.039062 302.773438 L 505.039062 345.878906 L 493.808594 345.878906 L 493.808594 286.523438 L 506.675781 286.523438 L 525.160156 311.960938 L 543.644531 286.523438 L 556.277344 286.523438 L 556.277344 345.878906 L 545.046875 345.878906 L 545.046875 303.007812 Z M 525.863281 328.683594 " fill-opacity="1" fill-rule="nonzero"/><path fill="#ffffff" d="M 570.546875 286.285156 C 573.589844 286.285156 576.632812 288.171875 576.632812 292.410156 C 576.632812 296.414062 573.589844 298.535156 570.546875 298.535156 C 567.507812 298.535156 564.46875 296.414062 564.46875 292.410156 C 564.46875 288.171875 567.507812 286.285156 570.546875 286.285156 Z M 565.402344 345.878906 L 575.695312 345.878906 L 575.695312 303.953125 L 565.402344 303.953125 Z M 565.402344 345.878906 " fill-opacity="1" fill-rule="nonzero"/><path fill="#ffffff" d="M 615 323.972656 C 615 317.613281 611.492188 312.667969 604.941406 312.667969 C 598.625 312.667969 594.410156 318.085938 594.410156 324.445312 L 594.410156 345.878906 L 584.117188 345.878906 L 584.117188 303.953125 L 593.242188 303.953125 L 593.945312 309.605469 C 598.152344 305.367188 602.367188 303.246094 607.511719 303.246094 C 617.339844 303.246094 625.058594 310.546875 625.058594 323.738281 L 625.058594 345.644531 L 614.765625 345.644531 L 614.765625 323.972656 Z M 615 323.972656 " fill-opacity="1" fill-rule="nonzero"/><path fill="#ffffff" d="M 654.773438 337.636719 C 658.515625 337.636719 663.429688 336.222656 666.003906 333.632812 L 672.554688 340.226562 C 668.105469 344.703125 661.089844 347.058594 654.773438 347.058594 C 640.5 347.058594 631.84375 338.105469 631.84375 324.679688 C 631.84375 311.960938 640.5 302.773438 653.839844 302.773438 C 666.703125 302.773438 674.894531 310.074219 674.894531 324.679688 C 674.894531 325.859375 674.894531 327.269531 674.65625 328.683594 L 642.136719 328.683594 C 643.074219 333.867188 647.753906 337.636719 654.773438 337.636719 Z M 654.304688 311.960938 C 648.6875 311.960938 644.246094 314.789062 642.609375 320.203125 L 665.066406 320.203125 C 664.363281 314.789062 660.152344 311.960938 654.304688 311.960938 Z M 654.304688 311.960938 " fill-opacity="1" fill-rule="nonzero"/><g clip-path="url(#2fa3f634e7)"><path fill="#ffffff" d="M 692.671875 308.898438 C 695.949219 303.714844 700.160156 303.007812 704.375 303.007812 C 708.582031 303.007812 712.796875 304.660156 715.132812 307.015625 L 710.453125 315.964844 C 708.347656 314.082031 706.476562 313.136719 702.96875 313.136719 C 697.585938 313.136719 692.671875 315.964844 692.671875 323.738281 L 692.671875 345.878906 L 682.378906 345.878906 L 682.378906 304.1875 L 691.972656 304.1875 Z M 692.671875 308.898438 " fill-opacity="1" fill-rule="nonzero"/></g></svg>